<?xml version="1.0" standalone="no"?>
<!DOCTYPE svg PUBLIC "-//W3C//DTD SVG 20010904//EN"
 "http://www.w3.org/TR/2001/REC-SVG-20010904/DTD/svg10.dtd">
<svg version="1.0" xmlns="http://www.w3.org/2000/svg"
 width="373.000000pt" height="176.000000pt" viewBox="0 0 373.000000 176.000000"
 preserveAspectRatio="xMidYMid meet">

<g transform="translate(0.000000,176.000000) scale(0.100000,-0.100000)"
fill="#000000" stroke="none">
<path d="M2740 1740 c-58 -11 -158 -29 -224 -41 l-118 -21 38 -22 c31 -17 38
-27 37 -46 -2 -14 -12 -97 -23 -185 -24 -193 -25 -214 -5 -222 9 -3 18 -3 21
-1 2 3 14 101 25 219 10 117 20 214 22 215 3 3 300 54 314 54 11 0 15 -56 29
-382 l6 -148 -176 0 -176 0 0 -30 0 -30 295 0 295 0 -1 33 c0 17 -8 134 -17
260 -18 242 -19 239 31 216 23 -10 24 -17 46 -263 22 -253 22 -253 57 -320 20
-37 38 -65 41 -63 4 4 -38 487 -53 608 -5 44 -4 47 21 53 15 4 25 9 22 12 -5
5 -399 126 -401 123 -1 -1 -48 -9 -106 -19z m39 -43 c-37 -10 -62 -2 -57 16 7
20 61 26 76 8 11 -14 8 -17 -19 -24z m-212 -23 c5 -16 -38 -26 -54 -12 -7 5
-10 15 -7 20 8 12 56 6 61 -8z m398 -14 c40 -13 51 -22 53 -41 7 -63 27 -451
23 -455 -2 -2 -37 -4 -77 -4 -71 0 -73 1 -78 28 -3 15 -8 134 -12 266 l-6 238
23 -7 c13 -5 47 -16 74 -25z"/>
<path d="M1575 1564 c-41 -95 -78 -179 -81 -188 -5 -14 3 -16 52 -16 66 0 80
7 98 41 6 13 26 33 44 44 47 29 149 228 133 261 -9 20 -18 23 -90 26 l-81 3
-75 -171z"/>
<path d="M1265 1615 l-300 -103 3 -33 c2 -19 5 -36 7 -37 4 -4 528 184 556
199 15 7 44 68 37 74 -2 2 -138 -44 -303 -100z"/>
<path d="M1871 1643 c-7 -14 22 -47 166 -188 117 -113 188 -174 212 -183 30
-10 3 21 -164 188 -110 110 -201 200 -202 200 -1 0 -6 -8 -12 -17z"/>
<path d="M1160 1335 c-184 -118 -338 -215 -343 -215 -4 0 -107 52 -228 116
-121 64 -222 114 -224 112 -2 -2 -14 -185 -27 -406 -12 -222 -26 -408 -29
-414 -5 -7 -36 -4 -98 12 l-92 22 7 89 c4 49 4 89 0 89 -4 0 -25 -38 -47 -85
-87 -185 -90 -351 -10 -462 52 -71 73 -80 293 -123 112 -22 207 -40 211 -40 5
0 -6 15 -24 32 -54 54 -82 130 -87 231 -7 144 30 279 117 420 23 37 41 70 41
72 0 3 -9 5 -20 5 -11 0 -20 4 -20 9 0 4 215 120 478 257 l477 249 -62 3 c-35
2 -63 5 -63 6 0 2 23 55 50 117 28 62 50 114 50 116 0 10 -47 -19 -350 -212z
m-572 -218 c61 -38 112 -71 112 -72 0 -5 -234 -153 -253 -161 -17 -6 -18 0
-12 102 9 174 15 215 28 208 7 -4 63 -38 125 -77z"/>
<path d="M830 1431 c-41 -15 -128 -47 -194 -71 -85 -31 -114 -45 -103 -52 11
-5 72 13 189 56 219 81 208 77 208 87 0 14 -19 10 -100 -20z"/>
<path d="M1707 1399 c-9 -6 -17 -20 -17 -32 0 -19 63 -60 380 -250 209 -125
382 -227 385 -227 3 0 4 57 3 126 l-3 126 -330 119 c-181 66 -346 126 -365
133 -24 10 -41 11 -53 5z"/>
<path d="M233 1353 c-13 -2 -23 -7 -23 -11 0 -4 -11 -173 -25 -376 -14 -203
-24 -371 -21 -373 5 -5 109 -33 112 -30 1 1 12 164 23 362 12 198 23 377 25
398 4 37 4 37 -32 36 -21 -1 -47 -4 -59 -6z"/>
<path d="M1511 863 c-24 -46 -251 -563 -251 -573 0 -7 24 -10 72 -8 l72 3 51
112 c28 61 53 114 57 118 3 4 50 -48 103 -114 127 -159 109 -159 356 -1 103
66 190 120 193 120 2 0 -18 -49 -45 -110 -27 -60 -49 -114 -49 -120 0 -16 336
-13 343 2 3 7 59 134 126 281 66 148 123 277 126 288 6 17 1 19 -62 19 l-68 0
-295 -186 c-162 -102 -302 -190 -311 -195 -14 -7 -37 25 -135 186 l-119 194
-77 1 c-64 0 -79 -3 -87 -17z"/>
<path d="M2831 858 c-5 -13 -64 -144 -130 -292 -67 -148 -121 -273 -121 -278
0 -5 174 -8 398 -6 l397 3 58 28 c126 62 227 175 273 305 29 81 30 124 4 180
-15 33 -29 47 -62 62 -40 18 -68 20 -426 20 l-382 0 -9 -22z m530 -97 l24 -19
-18 -51 c-31 -89 -93 -215 -122 -250 -16 -18 -44 -40 -62 -47 -32 -14 -213
-20 -213 -8 0 4 39 94 86 200 l86 194 98 0 c82 0 102 -3 121 -19z"/>
<path d="M622 712 c-81 -125 -124 -260 -125 -387 -1 -184 91 -300 248 -313
l61 -4 128 106 c70 58 137 117 148 131 l20 26 -37 -18 c-32 -15 -38 -16 -46
-3 -5 8 -35 56 -67 106 -41 64 -74 135 -112 239 -29 81 -58 148 -64 150 -6 2
-36 6 -67 9 l-57 6 -30 -48z"/>
</g>
</svg>
